<?xml version="1.0" encoding="UTF-8"?>
<svg width="320px" height="81px" viewBox="0 0 320 81" version="1.1" xmlns="http://www.w3.org/2000/svg" xmlns:xlink="http://www.w3.org/1999/xlink">
    <title>Group 11</title>
    <g id="Stack" stroke="none" stroke-width="1" fill="none" fill-rule="evenodd">
        <g id="Group-11">
            <g id="Mod-Copy" transform="translate(126, 7)" fill="#000000" fill-rule="nonzero">
                <polygon id="Path" points="0 72 0 0 12.2 0 36 47.8 59.8 0 72 0 72 72 59.3 72 59.3 29 38.4 72 33.6 72 12.7 29 12.7 72"></polygon>
                <path d="M108.56087,73.5 C103.127536,73.5 98.3608696,72.2833333 94.2608696,69.85 C90.1608696,67.4166667 86.9692029,64.0583333 84.6858696,59.775 C82.4025362,55.4916667 81.2608696,50.5666667 81.2608696,45 C81.2608696,39.3666667 82.4275362,34.4083333 84.7608696,30.125 C87.0942029,25.8416667 90.3108696,22.5 94.4108696,20.1 C98.5108696,17.7 103.227536,16.5 108.56087,16.5 C113.994203,16.5 118.769203,17.7166667 122.88587,20.15 C127.002536,22.5833333 130.21087,25.9416667 132.51087,30.225 C134.81087,34.5083333 135.96087,39.4333333 135.96087,45 C135.96087,50.6 134.802536,55.5416667 132.48587,59.825 C130.169203,64.1083333 126.952536,67.4583333 122.83587,69.875 C118.719203,72.2916667 113.96087,73.5 108.56087,73.5 Z M108.56087,60.8 C112.927536,60.8 116.18587,59.325 118.33587,56.375 C120.48587,53.425 121.56087,49.6333333 121.56087,45 C121.56087,40.2 120.469203,36.3666667 118.28587,33.5 C116.102536,30.6333333 112.86087,29.2 108.56087,29.2 C105.594203,29.2 103.16087,29.8666667 101.26087,31.2 C99.3608696,32.5333333 97.9525362,34.3833333 97.0358696,36.75 C96.1192029,39.1166667 95.6608696,41.8666667 95.6608696,45 C95.6608696,49.8333333 96.7525362,53.675 98.9358696,56.525 C101.119203,59.375 104.327536,60.8 108.56087,60.8 Z" id="Shape"></path>
                <path d="M167.121739,73.5 C162.155072,73.5 157.805072,72.25 154.071739,69.75 C150.338406,67.25 147.430072,63.85 145.346739,59.55 C143.263406,55.25 142.221739,50.4 142.221739,45 C142.221739,39.5 143.280072,34.6083333 145.396739,30.325 C147.513406,26.0416667 150.488406,22.6666667 154.321739,20.2 C158.155072,17.7333333 162.655072,16.5 167.821739,16.5 C172.955072,16.5 177.271739,17.75 180.771739,20.25 C184.271739,22.75 186.921739,26.15 188.721739,30.45 C190.521739,34.75 191.421739,39.6 191.421739,45 C191.421739,50.4 190.513406,55.25 188.696739,59.55 C186.880072,63.85 184.171739,67.25 180.571739,69.75 C176.971739,72.25 172.488406,73.5 167.121739,73.5 Z M169.321739,61.4 C172.355072,61.4 174.780072,60.7166667 176.596739,59.35 C178.413406,57.9833333 179.721739,56.0666667 180.521739,53.6 C181.321739,51.1333333 181.721739,48.2666667 181.721739,45 C181.721739,41.7333333 181.321739,38.8666667 180.521739,36.4 C179.721739,33.9333333 178.446739,32.0166667 176.696739,30.65 C174.946739,29.2833333 172.655072,28.6 169.821739,28.6 C166.788406,28.6 164.296739,29.3416667 162.346739,30.825 C160.396739,32.3083333 158.955072,34.2916667 158.021739,36.775 C157.088406,39.2583333 156.621739,42 156.621739,45 C156.621739,48.0333333 157.071739,50.7916667 157.971739,53.275 C158.871739,55.7583333 160.255072,57.7333333 162.121739,59.2 C163.988406,60.6666667 166.388406,61.4 169.321739,61.4 Z M181.721739,72 L181.721739,35 L180.021739,35 L180.021739,0 L193.721739,0 L193.721739,72 L181.721739,72 Z" id="Shape"></path>
            </g>
            <g id="Group-Copy-7">
                <rect id="Rectangle" fill="#00D490" x="59" y="0" width="22" height="81" rx="10"></rect>
                <rect id="Rectangle-Copy" fill="#FFCC00" x="29" y="44" width="22" height="37" rx="10"></rect>
                <rect id="Rectangle-Copy-4" fill="#EA4335" x="29" y="0" width="22" height="37" rx="10"></rect>
                <rect id="Rectangle-Copy-2" fill="#5F4CFE" x="0" y="0" width="22" height="81" rx="10"></rect>
            </g>
        </g>
    </g>
</svg>